<svg xmlns="http://www.w3.org/2000/svg" xmlns:xlink="http://www.w3.org/1999/xlink" width="1500mm" height="500mm" viewBox="0 0 1500 500"><defs><linearGradient id="a"><stop offset="0"/><stop offset="1" stop-color="#70221f"/></linearGradient><linearGradient xlink:href="#a" id="b" x1="465.667" y1="-286.595" x2="1579.184" y2="367.304" gradientUnits="userSpaceOnUse" gradientTransform="matrix(.9375 0 0 .83333 0 49.5)"/></defs><g transform="translate(0 203)"><rect width="1500" height="500" y="-203" rx="15" ry="15" fill="url(#b)"/><g style="line-height:1.25" letter-spacing="0" word-spacing="0" stroke-width=".265"><path d="M242.408-15.797h-13.012v-1.447h13.012z" fill="#fff"/><path d="M255.1-15.797h-13.012v-1.447H255.1z" fill="#fff"/><path d="M267.792-15.797H254.78v-1.447h13.012z" fill="#fff"/><path d="M280.483-15.797h-13.012v-1.447h13.012z" fill="#fff"/><path d="M293.175-15.797h-13.012v-1.447h13.012zm25.384 0h-13.012v-1.447h13.012z" fill="#fff"/><path d="M331.25-15.797h-13.012v-1.447h13.012z" fill="#fff"/><path d="M343.942-15.797H330.93v-1.447h13.012z" fill="#fff"/><path d="M356.634-15.797h-13.012v-1.447h13.012z" fill="#fff"/><path d="M369.326-15.797h-13.013v-1.447h13.013z" fill="#fff"/><path d="M382.017-15.797h-13.012v-1.447h13.012z" fill="#fff"/><path d="M394.709-15.797h-13.012v-1.447h13.012z" fill="#fff"/><path d="M407.4-15.797h-13.01v-1.447h13.01z" fill="#fff"/><path d="M420.092-15.797H407.08v-1.447h13.012z" fill="#fff"/><path d="M432.784-15.797h-13.012v-1.447h13.012zm25.384 0h-13.012v-1.447h13.012zm63.458 0h-13.012v-1.447h13.012z" fill="#fff"/><path d="M534.318-15.797h-13.012v-1.447h13.012z" fill="#fff"/><path d="M547.01-15.797h-13.012v-1.447h13.012z" fill="#fff"/><path d="M559.702-15.797h-13.013v-1.447h13.013z" fill="#fff"/><path d="M572.393-15.797h-13.012v-1.447h13.012z" fill="#fff"/><path d="M585.085-15.797h-13.012v-1.447h13.012z" fill="#fff"/><path d="M597.777-15.797h-13.012v-1.447h13.012z" fill="#fff"/><path d="M610.468-15.797h-13.012v-1.447h13.012z" fill="#fff"/><path d="M623.16-15.797h-13.012v-1.447h13.012z" fill="#fff"/><path d="M635.852-15.797H622.84v-1.447h13.012z" fill="#fff"/><path d="M648.544-15.797h-13.012v-1.447h13.012z" fill="#fff"/><path d="M661.235-15.797h-13.012v-1.447h13.012zm38.075 0h-13.012v-1.447h13.013z" fill="#fff"/><path d="M712.002-15.797H698.99v-1.447h13.012zm63.459 0h-13.012v-1.447h13.012z" fill="#fff"/><path d="M788.153-15.797H775.14v-1.447h13.012z" fill="#fff"/><path d="M800.844-15.797h-13.012v-1.447h13.012z" fill="#fff"/><path d="M813.536-15.797h-13.012v-1.447h13.012z" fill="#fff"/><path d="M826.228-15.797h-13.012v-1.447h13.012z" fill="#fff"/><path d="M838.92-15.797h-13.012v-1.447h13.012z" fill="#fff"/><path d="M851.611-15.797H838.6v-1.447h13.012z" fill="#fff"/><path d="M864.303-15.797h-13.012v-1.447h13.012z" fill="#fff"/><path d="M876.995-15.797h-13.012v-1.447h13.012z" fill="#fff"/><path d="M889.687-15.797h-13.013v-1.447h13.013z" fill="#fff"/><path d="M902.378-15.797h-13.012v-1.447h13.012z" fill="#fff"/><path d="M915.07-15.797h-13.012v-1.447h13.012z" fill="#fff"/><path d="M927.762-15.797H914.75v-1.447h13.012z" fill="#fff"/><path d="M940.454-15.797H927.44v-1.447h13.013z" fill="#fff"/><path d="M953.145-15.797h-13.012v-1.447h13.012z" fill="#fff"/><path d="M965.837-15.797h-13.012v-1.447h13.012z" fill="#fff"/><path d="M1029.296-15.797h-13.013v-1.447h13.013z" fill="#fd5750" fill-opacity=".996"/><path d="M1041.987-15.797h-13.012v-1.447h13.012z" fill="#fd5750" fill-opacity=".996"/><path d="M1054.68-15.797h-13.013v-1.447h13.012z" fill="#fd5750" fill-opacity=".996"/><path d="M1067.37-15.797h-13.011v-1.447h13.012zm38.076 0h-13.012v-1.447h13.012z" fill="#fd5750" fill-opacity=".996"/><path d="M1118.138-15.797h-13.012v-1.447h13.012z" fill="#fd5750" fill-opacity=".996"/><path d="M1130.83-15.797h-13.013v-1.447h13.013zm50.766 0h-13.012v-1.447h13.012z" fill="#fd5750" fill-opacity=".996"/><path d="M1194.288-15.797h-13.012v-1.447h13.012z" fill="#fd5750" fill-opacity=".996"/><path d="M1206.98-15.797h-13.012v-1.447h13.012z" fill="#fd5750" fill-opacity=".996"/><path d="M1219.672-15.797h-13.012v-1.447h13.012z" fill="#fd5750" fill-opacity=".996"/><path d="M1232.363-15.797h-13.012v-1.447h13.012z" fill="#fd5750" fill-opacity=".996"/><path d="M1245.055-15.797h-13.012v-1.447h13.012z" fill="#fd5750" fill-opacity=".996"/><path d="M1257.747-15.797h-13.012v-1.447h13.012z" fill="#fd5750" fill-opacity=".996"/><path d="M1270.438-15.797h-13.012v-1.447h13.013zm25.384 0h-13.012v-1.447h13.012z" fill="#fd5750" fill-opacity=".996"/><path d="M1308.514-15.797h-13.012v-1.447h13.012z" fill="#fd5750" fill-opacity=".996"/><path d="M227.37-7.798l-6.48 15.11h-1.84l6.48-15.11zm27.73 18.459h-13.012V9.214H255.1z" fill="#fff"/><path d="M267.792 10.661H254.78V9.214h13.012z" fill="#fff"/><path d="M280.483 10.661h-13.012V9.214h13.012zM290.83-7.798l-6.481 15.11h-1.84l6.48-15.11zm12.69 0l-6.48 15.11h-1.84l6.481-15.11zm27.73 18.459h-13.012V9.214h13.012z" fill="#fff"/><path d="M343.942 10.661H330.93V9.214h13.012z" fill="#fff"/><path d="M356.634 10.661h-13.012V9.214h13.012z" fill="#fff"/><path d="M369.326 10.661h-13.013V9.214h13.013zm10.345-18.459l-6.48 15.11h-1.84l6.48-15.11zM407.4 10.661h-13.01V9.214h13.01z" fill="#fff"/><path d="M420.092 10.661H407.08V9.214h13.012zM436.65-7.798l6.48 15.11h-1.84l-6.48-15.11zm26.933-.972h1.54v21.167h-1.54zm43.006.972l-6.48 15.11h-1.84l6.48-15.11zm25.383 0l-6.48 15.11h-1.84l6.48-15.11zm27.73 18.459h-13.013V9.214h13.013z" fill="#fff"/><path d="M572.393 10.661h-13.012V9.214h13.012z" fill="#fff"/><path d="M585.085 10.661h-13.012V9.214h13.012z" fill="#fff"/><path d="M597.777 10.661h-13.012V9.214h13.012zm10.345-18.459l-6.48 15.11h-1.84l6.48-15.11zm27.73 18.459H622.84V9.214h13.012z" fill="#fff"/><path d="M648.544 10.661h-13.012V9.214h13.012zM665.1-7.798l6.481 15.11h-1.84l-6.48-15.11zm19.173 0l-6.48 15.11h-1.84l6.48-15.11zm25.383 0l-6.48 15.11h-1.84l6.48-15.11zm50.767 0l-6.48 15.11h-1.84l6.48-15.11zm27.73 18.459H775.14V9.214h13.012z" fill="#fff"/><path d="M800.844 10.661h-13.012V9.214h13.012z" fill="#fff"/><path d="M813.536 10.661h-13.012V9.214h13.012z" fill="#fff"/><path d="M826.228 10.661h-13.012V9.214h13.012zm10.346-18.459l-6.48 15.11h-1.84l6.48-15.11zm27.729 18.459h-13.012V9.214h13.012z" fill="#fff"/><path d="M876.995 10.661h-13.012V9.214h13.012z" fill="#fff"/><path d="M889.687 10.661h-13.013V9.214h13.013zm10.345-18.459l-6.48 15.11h-1.84l6.48-15.11zm27.73 18.459H914.75V9.214h13.012z" fill="#fff"/><path d="M940.454 10.661H927.44V9.214h13.013z" fill="#fff"/><path d="M953.145 10.661h-13.012V9.214h13.012zM963.49-7.798l-6.48 15.11h-1.839l6.48-15.11z" fill="#fff"/><path d="M1014.258-7.798l-6.48 15.11h-1.84l6.48-15.11zm27.729 18.459h-13.012V9.214h13.012z" fill="#fd5750" fill-opacity=".996"/><path d="M1054.68 10.661h-13.013V9.214h13.012zm16.556-18.459l6.48 15.11h-1.84l-6.48-15.11zm19.172 0l-6.48 15.11h-1.84l6.48-15.11zm45.837-.972h1.54v21.167h-1.54zm30.314.972l-6.48 15.11h-1.84l6.48-15.11zm27.729 18.459h-13.012V9.214h13.012z" fill="#fd5750" fill-opacity=".996"/><path d="M1206.98 10.661h-13.012V9.214h13.012z" fill="#fd5750" fill-opacity=".996"/><path d="M1219.672 10.661h-13.012V9.214h13.012z" fill="#fd5750" fill-opacity=".996"/><path d="M1232.363 10.661h-13.012V9.214h13.012zm10.346-18.459l-6.48 15.11h-1.84l6.48-15.11zm25.383 0l-6.48 15.11h-1.84l6.48-15.11zm12.692 0l-6.48 15.11h-1.84l6.48-15.11zm15.038 18.459h-13.012V9.214h13.012zm10.346-18.459l-6.48 15.11h-1.84l6.48-15.11z" fill="#fd5750" fill-opacity=".996"/><path d="M220.89 18.66l6.48 15.11h-1.84l-6.48-15.11zm21.518 18.46h-13.012v-1.447h13.012z" fill="#fff"/><path d="M255.1 37.12h-13.012v-1.447H255.1zm16.557-18.46l6.48 15.11h-1.84l-6.48-15.11zm19.173 0l-6.481 15.11h-1.84l6.48-15.11zm27.729 18.46h-13.012v-1.447h13.012z" fill="#fff"/><path d="M331.25 37.12h-13.012v-1.447h13.012zm10.346-18.46l-6.48 15.11h-1.84l6.48-15.11zm25.384 0l-6.48 15.11h-1.84l6.48-15.11zm25.383 0l-6.48 15.11h-1.84l6.48-15.11zM407.4 37.12h-13.01v-1.447h13.01zm10.346-18.46l-6.48 15.11h-1.84l6.48-15.11zm25.384 0l-6.48 15.11h-1.84l6.48-15.11zm20.453-.97h1.54v21.166h-1.54zm30.314.97l-6.48 15.11h-1.84l6.48-15.11zm25.383 0l-6.48 15.11h-1.84l6.48-15.11zm27.73 18.46h-13.012v-1.447h13.012z" fill="#fff"/><path d="M559.702 37.12h-13.013v-1.447h13.013zm10.345-18.46l-6.48 15.11h-1.84l6.48-15.11zm25.383 0l-6.48 15.11h-1.84l6.48-15.11zm25.384 0l-6.48 15.11h-1.84l6.48-15.11zm15.038 18.46H622.84v-1.447h13.012zm10.346-18.46l-6.48 15.11h-1.84l6.48-15.11zm25.383 0l-6.48 15.11h-1.84l6.48-15.11zm25.384 0l-6.48 15.11h-1.84l6.48-15.11zm50.766 0l-6.48 15.11h-1.84l6.48-15.11zm27.73 18.46h-13.012v-1.447h13.012z" fill="#fff"/><path d="M788.153 37.12H775.14v-1.447h13.012zm10.345-18.46l-6.48 15.11h-1.84l6.48-15.11zm31.595 0l6.48 15.11h-1.84l-6.48-15.11zm21.518 18.46H838.6v-1.447h13.012z" fill="#fff"/><path d="M864.303 37.12h-13.012v-1.447h13.012zm16.557-18.46l6.48 15.11h-1.84l-6.48-15.11zm12.692 0l6.48 15.11h-1.84l-6.48-15.11zm21.518 18.46h-13.012v-1.447h13.012z" fill="#fff"/><path d="M927.762 37.12H914.75v-1.447h13.012zm16.557-18.46l6.48 15.11h-1.84l-6.48-15.11z" fill="#fff"/><path d="M1001.566 18.66l-6.48 15.11h-1.84l6.48-15.11zm25.384 0l-6.48 15.11h-1.84l6.48-15.11zm15.037 18.46h-13.012v-1.447h13.012zm10.346-18.46l-6.48 15.11h-1.84l6.48-15.11zm25.383 0l-6.48 15.11h-1.84l6.48-15.11zm25.384 0l-6.48 15.11h-1.84l6.48-15.11zm7.762-.97h1.54v21.166h-1.54zm25.383 0h1.54v21.166h-1.54zm17.622.97l-6.48 15.11h-1.84l6.48-15.11zm25.383 0l-6.48 15.11h-1.84l6.48-15.11zm50.767 0l-6.48 15.11h-1.84l6.48-15.11zm22.841 12.403l.166.248q-.59 2.315-2.005 5.447h-1.571q.785-3.339 1.147-5.695zm15.844.424l-9.54-4.661V25.77l9.54-4.66v1.653l-7.39 3.534 7.39 3.535z" fill="#fd5750" fill-opacity=".996"/><path d="M217.025 63.578h-13.012V62.13h13.012z" fill="#fff"/><path d="M229.717 63.578h-13.013V62.13h13.013z" fill="#fff"/><path d="M242.408 63.578h-13.012V62.13h13.012zm10.346-18.459l-6.48 15.11h-1.84l6.48-15.11zm25.383 0l-6.48 15.11h-1.84l6.48-15.11zm25.383 0l-6.48 15.11h-1.84l6.481-15.11zm15.039 18.459h-13.012V62.13h13.012z" fill="#fff"/><path d="M331.25 63.578h-13.012V62.13h13.012z" fill="#fff"/><path d="M343.942 63.578H330.93V62.13h13.012zm10.346-18.459l-6.48 15.11h-1.84l6.48-15.11zm27.729 18.459h-13.012V62.13h13.012zm7.803-6.057l.166.248q-.59 2.315-2.005 5.447h-1.571q.785-3.338 1.147-5.695zm30.272 6.057H407.08V62.13h13.012zm10.346-18.459l-6.48 15.11h-1.84l6.48-15.11zm7.762-.972h1.54v21.167h-1.54zm25.383 0h1.54v21.167h-1.54zm17.622.972l-6.48 15.11h-1.84l6.48-15.11zm25.384 0l-6.48 15.11h-1.84l6.48-15.11zm25.383 0l-6.48 15.11h-1.84l6.48-15.11zm15.038 18.459h-13.012V62.13h13.012z" fill="#fff"/><path d="M559.702 63.578h-13.013V62.13h13.013z" fill="#fff"/><path d="M572.393 63.578h-13.012V62.13h13.012zm10.346-18.459l-6.48 15.11h-1.84l6.48-15.11zm27.729 18.459h-13.012V62.13h13.012zm7.804-6.057l.165.248q-.59 2.315-2.005 5.447h-1.571q.785-3.338 1.147-5.695zm30.272 6.057h-13.012V62.13h13.012zm10.346-18.459l-6.48 15.11h-1.84l6.48-15.11zm25.383 0l-6.48 15.11h-1.84l6.48-15.11zm15.037 18.459h-13.012V62.13h13.013z" fill="#fff"/><path d="M712.002 63.578H698.99V62.13h13.012z" fill="#fff"/><path d="M724.694 63.578h-13.012V62.13h13.012zm10.346-18.459l-6.48 15.11h-1.84l6.48-15.11zm25.383 0l-6.48 15.11h-1.84l6.48-15.11zm15.038 18.459h-13.012V62.13h13.012z" fill="#fff"/><path d="M788.153 63.578H775.14V62.13h13.012z" fill="#fff"/><path d="M800.844 63.578h-13.012V62.13h13.012zm25.384 0h-13.012V62.13h13.012z" fill="#fff"/><path d="M838.92 63.578h-13.012V62.13h13.012z" fill="#fff"/><path d="M851.611 63.578H838.6V62.13h13.012zm10.346-18.459l-6.48 15.11h-1.84l6.48-15.11zm25.383 0l-6.48 15.11h-1.84l6.48-15.11zm15.038 18.459h-13.012V62.13h13.012z" fill="#fff"/><path d="M915.07 63.578h-13.012V62.13h13.012zm10.346-18.459l-6.48 15.11h-1.84l6.48-15.11zm25.384 0l-6.481 15.11h-1.84l6.48-15.11z" fill="#fff"/><path d="M988.874 45.119l-6.48 15.11h-1.84l6.48-15.11zm27.73 18.459h-13.012V62.13h13.012zm7.803-6.057l.165.248q-.589 2.315-2.005 5.447h-1.57q.785-3.338 1.147-5.695zm30.273 6.057h-13.013V62.13h13.012zm10.345-18.459l-6.48 15.11h-1.84l6.48-15.11zm27.729 18.459h-13.012V62.13h13.012z" fill="#fd5750" fill-opacity=".996"/><path d="M1105.446 63.578h-13.012V62.13h13.012z" fill="#fd5750" fill-opacity=".996"/><path d="M1118.138 63.578h-13.012V62.13h13.012zm23.037-18.459l-6.48 15.11h-1.84l6.48-15.11zm25.384 0l-6.48 15.11h-1.84l6.48-15.11zm15.037 18.459h-13.012V62.13h13.012z" fill="#fd5750" fill-opacity=".996"/><path d="M1194.288 63.578h-13.012V62.13h13.012z" fill="#fd5750" fill-opacity=".996"/><path d="M1206.98 63.578h-13.012V62.13h13.012zm10.346-18.459l-6.48 15.11h-1.84l6.48-15.11zm25.383 0l-6.48 15.11h-1.84l6.48-15.11zm7.761-.972h1.54v21.167h-1.54zm25.384 0h1.54v21.167h-1.54z" fill="#fd5750" fill-opacity=".996"/><path d="M201.987 71.577l-6.48 15.11h-1.84l6.48-15.11zm15.038 18.459h-13.012V88.59h13.012z" fill="#fff"/><path d="M229.717 90.036h-13.013V88.59h13.013z" fill="#fff"/><path d="M242.408 90.036h-13.012V88.59h13.012z" fill="#fff"/><path d="M255.1 90.036h-13.012V88.59H255.1zm10.346-18.459l-6.48 15.11h-1.84l6.48-15.11zm15.037 18.459h-13.012V88.59h13.012z" fill="#fff"/><path d="M293.175 90.036h-13.012V88.59h13.012z" fill="#fff"/><path d="M305.867 90.036h-13.012V88.59h13.012z" fill="#fff"/><path d="M318.559 90.036h-13.012V88.59h13.012z" fill="#fff"/><path d="M331.25 90.036h-13.012V88.59h13.012zm10.346-18.459l-6.48 15.11h-1.84l6.48-15.11zm15.038 18.459h-13.012V88.59h13.012zm10.346-18.459l-6.48 15.11h-1.84l6.48-15.11zm20.453-.971h1.54v21.166h-1.54zm19.967 19.43h-13.01V88.59h13.01zm5.416-19.43h1.54v21.166h-1.54zm25.384 0h1.54v21.166h-1.54zm19.968 19.43h-13.012V88.59h13.012z" fill="#fff"/><path d="M470.86 90.036h-13.013V88.59h13.012z" fill="#fff"/><path d="M483.551 90.036H470.54V88.59h13.012zm10.346-18.459l-6.48 15.11h-1.84l6.48-15.11zm15.038 18.459h-13.013V88.59h13.013z" fill="#fff"/><path d="M521.626 90.036h-13.012V88.59h13.012z" fill="#fff"/><path d="M534.318 90.036h-13.012V88.59h13.012z" fill="#fff"/><path d="M547.01 90.036h-13.012V88.59h13.012z" fill="#fff"/><path d="M559.702 90.036h-13.013V88.59h13.013zm10.345-18.459l-6.48 15.11h-1.84l6.48-15.11zm15.038 18.459h-13.012V88.59h13.012zm10.345-18.459l-6.48 15.11h-1.84l6.48-15.11zm20.454-.971h1.54v21.166h-1.54zm19.968 19.43H622.84V88.59h13.012zm10.346-18.459l-6.48 15.11h-1.84l6.48-15.11zm15.037 18.459h-13.012V88.59h13.012z" fill="#fff"/><path d="M673.927 90.036h-13.012V88.59h13.012z" fill="#fff"/><path d="M686.619 90.036h-13.012V88.59h13.012z" fill="#fff"/><path d="M699.31 90.036h-13.012V88.59h13.013z" fill="#fff"/><path d="M712.002 90.036H698.99V88.59h13.012zm10.346-18.459l-6.48 15.11h-1.84l6.48-15.11zm15.038 18.459h-13.012V88.59h13.012z" fill="#fff"/><path d="M750.078 90.036h-13.013V88.59h13.013z" fill="#fff"/><path d="M762.77 90.036h-13.013V88.59h13.012z" fill="#fff"/><path d="M775.461 90.036h-13.012V88.59h13.012z" fill="#fff"/><path d="M788.153 90.036H775.14V88.59h13.012zm10.345-18.459l-6.48 15.11h-1.84l6.48-15.11zm12.692 0l-6.48 15.11h-1.84l6.48-15.11zm15.038 18.459h-13.012V88.59h13.012z" fill="#fff"/><path d="M838.92 90.036h-13.012V88.59h13.012z" fill="#fff"/><path d="M851.611 90.036H838.6V88.59h13.012z" fill="#fff"/><path d="M864.303 90.036h-13.012V88.59h13.012zm10.346-18.459l-6.48 15.11h-1.84l6.48-15.11zm15.038 18.459h-13.013V88.59h13.013z" fill="#fff"/><path d="M902.378 90.036h-13.012V88.59h13.012z" fill="#fff"/><path d="M915.07 90.036h-13.012V88.59h13.012z" fill="#fff"/><path d="M927.762 90.036H914.75V88.59h13.012zm10.345-18.459l-6.48 15.11h-1.84l6.48-15.11z" fill="#fff"/><path d="M976.183 71.577l-6.48 15.11h-1.84l6.48-15.11zm15.037 18.459h-13.012V88.59h13.012zm10.346-18.459l-6.48 15.11h-1.84l6.48-15.11zm20.454-.971h1.54v21.166h-1.54zm19.967 19.43h-13.012V88.59h13.012zm10.346-18.459l-6.48 15.11h-1.84l6.48-15.11zm15.037 18.459h-13.011V88.59h13.012zm10.346-18.459l-6.48 15.11h-1.84l6.48-15.11zm33.146-.971h1.54v21.166h-1.54zm19.968 19.43h-13.013V88.59h13.013zm3.865-18.459l6.48 15.11h-1.84l-6.48-15.11zm21.518 18.459h-13.012V88.59h13.012z" fill="#fd5750" fill-opacity=".996"/><path d="M1168.905 90.036h-13.012V88.59h13.012z" fill="#fd5750" fill-opacity=".996"/><path d="M1181.596 90.036h-13.012V88.59h13.012z" fill="#fd5750" fill-opacity=".996"/><path d="M1194.288 90.036h-13.012V88.59h13.012zm10.346-18.459l-6.48 15.11h-1.84l6.48-15.11zm15.038 18.459h-13.012V88.59h13.012zm10.345-18.459l-6.48 15.11h-1.84l6.48-15.11zm20.453-.971h1.54v21.166h-1.54zm19.968 19.43h-13.012V88.59h13.013zm5.416-19.43h1.54v21.166h-1.54z" fill="#fd5750" fill-opacity=".996"/></g></g></svg>